<svg width="116" height="140" viewBox="0 0 116 140" fill="none" xmlns="http://www.w3.org/2000/svg">
<path d="M4.5 27.0777V59.4342L20.0773 52.7649V35.373L37.8699 44.8702L54.2484 37.1876L19.064 19.2065L4.5 27.0777Z" fill="white"/>
<path d="M29.7852 13.9512L47.1535 22.8357L55.4488 18.8059L63.3435 22.8357L81.7253 15.3652L55.4488 0L29.7852 13.9512Z" fill="white"/>
<path d="M106 27.0775L92.4494 20.2197L74.4683 28.4915L86.5814 35.5849L4.5 72.3719V92.5918L17.65 99.049L35.2304 90.5651L23.7065 84.0844L106 46.4961V27.0775Z" fill="white"/>
<path d="M105.999 91.5787V59.0337L90.8225 65.4909V83.684L72.6294 73.9747L56.4629 81.8694L90.8225 100.275L105.999 91.5787Z" fill="white"/>
<path d="M55.1219 101.029L46.2139 97.0459L29.9531 104.776L55.1219 118.256L81.8697 104.776L65.821 97.0459L55.1219 101.029Z" fill="white"/>
<path d="M4 129.506C15.1021 128.991 18.7474 128.33 29.7307 130.026C35.7685 130.959 41.4075 129.673 47.4454 130.094C53.4488 130.513 59.4463 131.448 65.431 132.109C85.383 134.313 93.5373 131.005 112 122.903" stroke="#3E4A3C" stroke-width="7" stroke-linecap="round"/>
</svg>
