<svg width="108" height="113" viewBox="0 0 108 113" fill="none" xmlns="http://www.w3.org/2000/svg">
<path d="M74.128 81.1706L51.8075 48.7407L48.6291 44.1246L22.7287 6.49277H33.8699L54.8163 36.926L57.9943 41.5426L85.2698 81.1706H74.128ZM89.8755 78.0028L61.7624 37.1596L58.5837 32.5409L38.4737 3.3249L36.807 0.903429H12.0957L18.1224 9.66137L44.8612 48.5119L48.0397 53.1261L69.5237 84.3418L71.1908 86.7603H95.9024L89.8755 78.0028Z" fill="white"/>
<path d="M48.6299 44.1245L51.8085 48.7408L48.0404 53.1262L19.1293 86.7603H12L44.8619 48.512L48.6299 44.1245Z" fill="white"/>
<path d="M92.9271 0.903324L61.7626 37.1595L57.9944 41.5425L54.8164 36.9259L58.5839 32.5408L79.695 7.96884L85.7979 0.903324H92.9271Z" fill="white"/>
<path d="M4 99.9033C7.87937 103.339 14.5916 103.734 19.2107 104.021C26.3466 104.464 33.4187 106.337 40.5517 107.052C48.9576 107.895 58.3475 109.756 66.7203 108.455C70.2097 107.913 74.2123 108.331 77.5249 106.826C79.9551 105.722 83.4552 104.79 86.069 104.79C88.4375 104.79 91.8594 105.552 94.0383 104.383C96.8065 102.897 101.923 105.614 104 103.161" stroke="#3E4A3C" stroke-width="7" stroke-linecap="round"/>
</svg>
