<svg width="104" height="107" viewBox="0 0 104 107" fill="none" xmlns="http://www.w3.org/2000/svg">
<path d="M100.811 2.34952C100.467 1.33618 100.056 1.06952 99.415 0.816183C98.0124 0.296183 95.6364 1.08285 95.6364 1.08285C95.6364 1.08285 11.523 31.3229 6.71769 34.6695C5.68302 35.3895 5.33637 35.8162 5.16437 36.3095C4.3337 38.6828 6.92169 39.7362 6.92169 39.7362L28.6017 46.8029C28.6017 46.8029 29.4097 46.9229 29.6977 46.7362C34.6297 43.6162 79.319 15.4028 81.8964 14.4562C82.303 14.3362 82.6044 14.4695 82.5244 14.7495C81.4924 18.3762 42.6777 52.8695 42.6777 52.8695C42.6777 52.8695 42.5297 53.0562 42.4364 53.2695L42.3857 53.2428L40.363 74.7495C40.363 74.7495 39.515 81.3362 46.103 74.7495C50.751 70.0962 55.2484 66.2028 57.499 64.3228C64.9537 69.4695 72.9764 75.1629 76.439 78.1362C78.1777 79.6295 79.6324 79.8695 80.8297 79.8295C84.1164 79.7095 85.0337 76.0962 85.0337 76.0962C85.0337 76.0962 100.362 14.4029 100.874 6.13619C100.924 5.32285 100.994 4.81617 100.999 4.25617C101.008 3.48284 100.936 2.70952 100.811 2.34952Z" fill="white"/>
<path d="M4 87.9028C7.86561 88.2543 11.6198 90.6055 15.3296 91.6489C19.7949 92.9048 24.2438 93.8021 28.6693 95.3036C41.1571 99.5405 52.1048 104.895 65.6275 103.116C73.4334 102.088 81.049 101.645 88.7892 100.237C89.8243 100.049 100.21 97.3175 100.21 96.1259" stroke="#3E4A3C" stroke-width="7" stroke-linecap="round"/>
</svg>
